:FULLY-SPECIFIED
:FORCE-ALL-JOINTS-BE-3DOF
:DEGREES
2242
root -0.738098 13.835 -16.4042 -168.79 -25.9882 168.729
lfemur 11.7888 -0.20855 -14.8127
ltibia 33.447 -0 0
lfoot -24.1699 36.8641 0.0041984
ltoes -43.4592 0 0
rfemur -71.682 -22.9604 8.76702
rtibia 73.061 -0 0
rfoot -6.13338 14.5964 0.0521065
rtoes 3.67619 -0 0
lowerback 9.31465 2.18721 -13.6265
upperback -2.8588 0.840459 -2.141
thorax -8.60591 0.977912 5.20061
lowerneck 1.36964 -12.2719 -12.7033
upperneck 4.27932 -17.0635 10.6171
head 3.02966 -8.57883 4.50419
lclavicle 2.8597e-14 2.36554e-14 0
lhumerus -72.5066 -16.9544 103.581
lradius 103.584 -0 0
lwrist 63.0497 0 0
lhand -9.74077 63.8225 -0.103636
lfingers 7.12502 -0 0
lthumb 14.2639 135.916 1.70562
rclavicle 2.8597e-14 2.36554e-14 0
rhumerus 51.4506 -10.8409 -60.0348
rradius 12.7296 -0 0
rwrist 38.786 0 0
rhand -22.9984 -43.2063 -0.381664
rfingers 7.12502 -0 0
rthumb 4.28962 -75.2871 -1.85429
2243
root -0.741698 13.8283 -16.4291 -168.668 -25.9292 168.698
lfemur 11.8174 -0.237143 -14.9069
ltibia 33.1955 -0 0
lfoot -24.0899 36.8687 0.00397885
ltoes -43.6597 0 0
rfemur -71.8838 -22.9919 8.81342
rtibia 73.2741 -0 0
rfoot -6.24849 14.597 0.0463182
rtoes 3.76959 -0 0
lowerback 9.21442 2.17876 -13.6589
upperback -2.88229 0.836791 -2.15338
thorax -8.57399 0.975677 5.20702
lowerneck 1.31886 -12.2666 -12.658
upperneck 4.29798 -17.0526 10.6046
head 3.03907 -8.5714 4.49283
lclavicle 2.8597e-14 2.36554e-14 0
lhumerus -72.1955 -17.0965 103.627
lradius 103.407 -0 0
lwrist 62.8976 0 0
lhand -9.92182 63.4354 -0.0873402
lfingers 7.12502 -0 0
lthumb 14.2435 131.676 1.53609
rclavicle 2.8597e-14 2.36554e-14 0
rhumerus 51.2402 -10.773 -59.9626
rradius 13.1735 -0 0
rwrist 38.3221 0 0
rhand -22.6979 -43.1514 -0.340064
rfingers 7.12502 -0 0
rthumb 4.48637 -75.0022 -1.65387
2244
root -0.745298 13.8215 -16.454 -168.552 -25.8704 168.669
lfemur 11.8467 -0.263684 -14.9986
ltibia 32.9492 -0 0
lfoot -24.0108 36.8723 0.00376317
ltoes -43.8558 0 0
rfemur -72.0796 -23.021 8.85916
rtibia 73.4831 -0 0
rfoot -6.36099 14.597 0.0405472
rtoes 3.8607 -0 0
lowerback 9.11707 2.17069 -13.6905
upperback -2.90478 0.833528 -2.16497
thorax -8.54271 0.973645 5.21375
lowerneck 1.2687 -12.2609 -12.6133
upperneck 4.31684 -17.0413 10.5918
head 3.04841 -8.5638 4.48154
lclavicle 2.8597e-14 2.36554e-14 0
lhumerus -71.8864 -17.2378 103.672
lradius 103.232 -0 0
lwrist 62.746 0 0
lhand -10.1011 63.0504 -0.0721902
lfingers 7.12502 -0 0
lthumb 14.2351 127.539 1.37001
rclavicle 2.8597e-14 2.36554e-14 0
rhumerus 51.0308 -10.7042 -59.8906
rradius 13.6141 -0 0
rwrist 37.8619 0 0
rhand -22.3989 -43.0966 -0.299045
rfingers 7.12502 -0 0
rthumb 4.68338 -74.7188 -1.45583
2245
root -0.748898 13.8147 -16.479 -168.44 -25.8123 168.641
lfemur 11.8773 -0.288171 -15.0871
ltibia 32.708 -0 0
lfoot -23.9326 36.8752 0.00354954
ltoes -44.0471 0 0
rfemur -72.2694 -23.0481 8.90416
rtibia 73.6878 -0 0
rfoot -6.47107 14.5967 0.0348656
rtoes 3.94915 -0 0
lowerback 9.02288 2.16311 -13.7213
upperback -2.92625 0.830796 -2.17582
thorax -8.5122 0.971884 5.22073
lowerneck 1.21955 -12.255 -12.5693
upperneck 4.33551 -17.0298 10.5791
head 3.05753 -8.55616 4.47041
lclavicle 2.8597e-14 2.36554e-14 0
lhumerus -71.5826 -17.3769 103.716
lradius 103.059 -0 0
lwrist 62.597 0 0
lhand -10.2774 62.6694 -0.0583028
lfingers 7.12502 -0 0
lthumb 14.2372 123.515 1.209
rclavicle 2.8597e-14 2.36554e-14 0
rhumerus 50.825 -10.6354 -59.819
rradius 14.047 -0 0
rwrist 37.4096 0 0
rhand -22.1046 -43.0425 -0.259039
rfingers 7.12502 -0 0
rthumb 4.87832 -74.4397 -1.2623
2246
root -0.752499 13.808 -16.5039 -168.333 -25.755 168.616
lfemur 11.9099 -0.310604 -15.172
ltibia 32.4722 -0 0
lfoot -23.8557 36.8776 0.00333522
ltoes -44.2332 0 0
rfemur -72.4529 -23.0735 8.94832
rtibia 73.8878 -0 0
rfoot -6.57895 14.5964 0.029347
rtoes 4.03458 -0 0
lowerback 8.93209 2.15615 -13.7513
upperback -2.94666 0.828719 -2.18598
thorax -8.48263 0.970464 5.22786
lowerneck 1.1718 -12.249 -12.5265
upperneck 4.35359 -17.0183 10.5665
head 3.06633 -8.54861 4.45956
lclavicle 2.8597e-14 2.36554e-14 0
lhumerus -71.2877 -17.5125 103.759
lradius 102.892 -0 0
lwrist 62.4529 0 0
lhand -10.4496 62.294 -0.0457695
lfingers 7.12502 -0 0
lthumb 14.2477 119.609 1.05444
rclavicle 2.8597e-14 2.36554e-14 0
rhumerus 50.6249 -10.5674 -59.7478
rradius 14.4676 -0 0
rwrist 36.9693 0 0
rhand -21.8184 -42.9896 -0.220466
rfingers 7.12502 -0 0
rthumb 5.06885 -74.1679 -1.07534
2247
root -0.756099 13.8012 -16.5288 -168.231 -25.6989 168.592
lfemur 11.9454 -0.33098 -15.2526
ltibia 32.2417 -0 0
lfoot -23.7802 36.88 0.00311664
ltoes -44.4137 0 0
rfemur -72.6301 -23.0975 8.99157
rtibia 74.0829 -0 0
rfoot -6.68482 14.5963 0.024066
rtoes 4.11664 -0 0
lowerback 8.84498 2.14995 -13.7804
upperback -2.966 0.827423 -2.1955
thorax -8.45413 0.969454 5.23505
lowerneck 1.12581 -12.2432 -12.4851
upperneck 4.37068 -17.0072 10.5544
head 3.07466 -8.54128 4.44907
lclavicle 2.8597e-14 2.36554e-14 0
lhumerus -71.0048 -17.6432 103.8
lradius 102.73 -0 0
lwrist 62.3161 0 0
lhand -10.6166 61.9261 -0.0346576
lfingers 7.12502 -0 0
lthumb 14.2647 115.829 0.907449
rclavicle 2.8597e-14 2.36554e-14 0
rhumerus 50.433 -10.5011 -59.677
rradius 14.8713 -0 0
rwrist 36.5452 0 0
rhand -21.5438 -42.9385 -0.183738
rfingers 7.12502 -0 0
rthumb 5.25259 -73.9066 -0.896986
2248
root -0.759699 13.7944 -16.5538 -168.134 -25.6444 168.569
lfemur 11.9843 -0.349293 -15.3284
ltibia 32.0168 -0 0
lfoot -23.7063 36.8826 0.0028894
ltoes -44.5881 0 0
rfemur -72.8006 -23.1205 9.03383
rtibia 74.273 -0 0
rfoot -6.78889 14.5968 0.0190981
rtoes 4.19495 -0 0
lowerback 8.76179 2.14463 -13.8087
upperback -2.98423 0.827033 -2.20442
thorax -8.42686 0.968921 5.24221
lowerneck 1.08198 -12.2377 -12.4454
upperneck 4.38639 -16.9966 10.5428
head 3.08241 -8.53431 4.43907
lclavicle 2.8597e-14 2.36554e-14 0
lhumerus -70.7375 -17.7676 103.839
lradius 102.577 -0 0
lwrist 62.1887 0 0
lhand -10.7773 61.5675 -0.0250112
lfingers 7.12502 -0 0
lthumb 14.286 112.183 0.768892
rclavicle 2.8597e-14 2.36554e-14 0
rhumerus 50.2515 -10.4374 -59.6066
rradius 15.2534 -0 0
rwrist 36.1417 0 0
rhand -21.2841 -42.8896 -0.149253
rfingers 7.12502 -0 0
rthumb 5.42711 -73.6588 -0.729229
2249
root -0.763299 13.7877 -16.5787 -168.042 -25.5917 168.548
lfemur 12.0275 -0.365542 -15.3988
ltibia 31.7975 -0 0
lfoot -23.6341 36.8857 0.0026483
ltoes -44.7561 0 0
rfemur -72.9644 -23.1427 9.07503
rtibia 74.4579 -0 0
rfoot -6.89135 14.5981 0.0145198
rtoes 4.26917 -0 0
lowerback 8.6828 2.14031 -13.8362
upperback -3.00134 0.827673 -2.2128
thorax -8.40096 0.968936 5.24925
lowerneck 1.04068 -12.2327 -12.4078
upperneck 4.40031 -16.9869 10.5321
head 3.08945 -8.52782 4.42965
lclavicle 2.8597e-14 2.36554e-14 0
lhumerus -70.4891 -17.8844 103.877
lradius 102.434 -0 0
lwrist 62.073 0 0
lhand -10.9306 61.2199 -0.0168534
lfingers 7.12502 -0 0
lthumb 14.3093 108.678 0.639407
rclavicle 2.8597e-14 2.36554e-14 0
rhumerus 50.0827 -10.377 -59.5367
rradius 15.6095 -0 0
rwrist 35.7629 0 0
rhand -21.0428 -42.8435 -0.117402
rfingers 7.12502 -0 0
rthumb 5.58996 -73.4275 -0.574026
2250
root -0.766899 13.7809 -16.6036 -167.954 -25.5412 168.528
lfemur 12.0756 -0.379721 -15.4633
ltibia 31.5839 -0 0
lfoot -23.564 36.8897 0.0023874
ltoes -44.9173 0 0
rfemur -73.1214 -23.1646 9.11509
rtibia 74.6372 -0 0
rfoot -6.99243 14.6004 0.0104085
rtoes 4.33892 -0 0
lowerback 8.60826 2.13712 -13.8627
upperback -3.01729 0.829468 -2.22067
thorax -8.37658 0.969567 5.25609
lowerneck 1.0023 -12.2284 -12.3726
upperneck 4.41205 -16.9782 10.5225
head 3.09566 -8.52196 4.42092
lclavicle 2.8597e-14 2.36554e-14 0
lhumerus -70.263 -17.9921 103.911
lradius 102.303 -0 0
lwrist 61.9713 0 0
lhand -11.0753 60.885 -0.0101879
lfingers 7.12502 -0 0
lthumb 14.3325 105.322 0.519405
rclavicle 2.8597e-14 2.36554e-14 0
rhumerus 49.9291 -10.3208 -59.4673
rradius 15.935 -0 0
rwrist 35.4131 0 0
rhand -20.8231 -42.8007 -0.0885694
rfingers 7.12502 -0 0
rthumb 5.73868 -73.2159 -0.433311
2251
root -0.770499 13.7741 -16.6286 -167.871 -25.4932 168.509
lfemur 12.1294 -0.391827 -15.5213
ltibia 31.3761 -0 0
lfoot -23.4959 36.8949 0.00210012
ltoes -45.0711 0 0
rfemur -73.2712 -23.1864 9.15395
rtibia 74.8108 -0 0
rfoot -7.0923 14.6042 0.0068426
rtoes 4.40385 -0 0
lowerback 8.53844 2.13519 -13.8884
upperback -3.03205 0.832543 -2.22809
thorax -8.35387 0.970883 5.26263
lowerneck 0.967215 -12.225 -12.34
upperneck 4.42121 -16.9708 10.514
head 3.10089 -8.51685 4.41299
lclavicle 2.8597e-14 2.36554e-14 0
lhumerus -70.0626 -18.0894 103.943
lradius 102.184 -0 0
lwrist 61.8859 0 0
lhand -11.2103 60.5647 -0.00500165
lfingers 7.12502 -0 0
lthumb 14.3534 102.122 0.409099
rclavicle 2.8597e-14 2.36554e-14 0
rhumerus 49.7928 -10.2699 -59.3984
rradius 16.2253 -0 0
rwrist 35.0964 0 0
rhand -20.6285 -42.7619 -0.0631321
rfingers 7.12502 -0 0
rthumb 5.87078 -73.0272 -0.308992
2252
root -0.774099 13.7674 -16.6535 -167.793 -25.448 168.491
lfemur 12.1895 -0.401859 -15.5722
ltibia 31.1743 -0 0
lfoot -23.4303 36.9015 0.00177924
ltoes -45.2172 0 0
rfemur -73.4139 -23.2085 9.19154
rtibia 74.9786 -0 0
rfoot -7.19119 14.6095 0.00390135
rtoes 4.4636 -0 0
lowerback 8.47359 2.13465 -13.9132
upperback -3.04562 0.837023 -2.2351
thorax -8.33298 0.972955 5.26879
lowerneck 0.935806 -12.2227 -12.3105
upperneck 4.42739 -16.9649 10.5071
head 3.10504 -8.51263 4.40595
lclavicle 2.8597e-14 2.36554e-14 0
lhumerus -69.8913 -18.1749 103.972
lradius 102.081 -0 0
lwrist 61.819 0 0
lhand -11.3344 60.2608 -0.00126742
lfingers 7.12502 -0 0
lthumb 14.3696 99.0859 0.308525
rclavicle 2.8597e-14 2.36554e-14 0
rhumerus 49.6763 -10.2249 -59.3299
rradius 16.4757 -0 0
rwrist 34.8171 0 0
rhand -20.4624 -42.7274 -0.0414645
rfingers 7.12502 -0 0
rthumb 5.98375 -72.8644 -0.20297
2253
root -0.7777 13.7606 -16.6784 -167.719 -25.4059 168.473
lfemur 12.2568 -0.409817 -15.6156
ltibia 30.9785 -0 0
lfoot -23.3672 36.9099 0.00141707
ltoes -45.3553 0 0
rfemur -73.5491 -23.2312 9.22779
rtibia 75.1401 -0 0
rfoot -7.28929 14.6168 0.00166491
rtoes 4.5178 -0 0
lowerback 8.41398 2.13562 -13.937
upperback -3.05794 0.843033 -2.24175
thorax -8.31404 0.975851 5.27447
lowerneck 0.908454 -12.2217 -12.2842
upperneck 4.4302 -16.9609 10.5018
head 3.10797 -8.50942 4.39991
lclavicle 2.8597e-14 2.36554e-14 0
lhumerus -69.7526 -18.2471 103.999
lradius 101.994 -0 0
lwrist 61.7726 0 0
lhand -11.4466 59.975 0.00105283
lfingers 7.12502 -0 0
lthumb 14.379 96.221 0.217576
rclavicle 2.8597e-14 2.36554e-14 0
rhumerus 49.5817 -10.1868 -59.262
rradius 16.6818 -0 0
rwrist 34.5795 0 0
rhand -20.3281 -42.698 -0.0239398
rfingers 7.12502 -0 0
rthumb 6.0751 -72.7306 -0.117141
